<?xml version="1.0" encoding="UTF-8"?>
<svg width="100px" height="100px" viewBox="0 0 100 100" version="1.1" xmlns="http://www.w3.org/2000/svg" xmlns:xlink="http://www.w3.org/1999/xlink">
    <!-- Generator: Sketch 52.5 (67469) - http://www.bohemiancoding.com/sketch -->
    <title>guest-entries-honeypot</title>
    <desc>Created with Sketch.</desc>
    <defs></defs>
    <g id="Icons" stroke="none" stroke-width="1" fill="none" fill-rule="evenodd">
        <g id="guest-entries-honeypot">
            <circle id="Oval" fill="#8F98A3" cx="50" cy="50" r="50"></circle>
            <path d="M77.164,47.4178905 C76.48,45.2109479 75.492,43.2323097 74.048,41.329773 C72.832,39.8077437 71.616,38.7423231 70.78,38.0574099 L70.552,37.8291055 C70.4,37.6769025 70.4,37.4485981 70.4,37.2963952 L70.4,32.1975968 L70.78,32.1975968 L70.932,32.0453939 C71.692,31.740988 72.224,31.3604806 72.604,30.9038718 C73.136,30.3711615 73.516,29.8384513 73.744,29.2296395 C74.048,28.6208278 74.2,27.8598131 74.2,27.1748999 C74.2,26.4899866 74.048,25.728972 73.744,25.1201602 C73.44,24.2830441 72.68,23.4459279 71.92,22.9132176 C71.464,22.6088117 71.008,22.3805073 70.552,22.2283044 C70.02,22.0761015 69.412,22 68.956,22 L30.044,22 C29.284,22 28.6,22.1522029 27.992,22.4566088 C27.232,22.7610147 26.7,23.141522 26.244,23.5981308 C25.94,23.9786382 25.484,24.5113485 25.18,25.1962617 C24.876,25.8811749 24.8,26.5660881 24.8,27.2510013 C24.8,28.012016 24.952,28.6969292 25.256,29.305741 C25.712,30.2189586 26.32,31.0560748 27.156,31.588785 C27.46,31.8170895 27.916,32.0453939 28.296,32.1975968 L28.524,32.2736983 L28.524,37.2202937 C28.524,37.3724967 28.524,37.4485981 28.372,37.6769025 L28.296,37.753004 C28.296,37.8291055 28.22,37.9052069 28.144,37.9813084 L27.84,38.3618158 C27.308,38.8184246 26.7,39.3511348 26.092,40.0360481 C24.648,41.5580774 23.508,43.3084112 22.672,45.1348465 C21.532,47.4178905 21,50.0814419 21,52.9732977 C21,56.3978638 21.912,60.2790387 23.584,64.1602136 C25.636,68.8785047 28.6,73.5967957 32.628,78.4672897 C32.932,78.8477971 33.312,79 33.768,79 L65.232,79 C65.688,79 66.068,78.7716956 66.372,78.4672897 C70.552,73.4445928 73.592,68.5740988 75.416,64.1602136 C77.088,60.2790387 78,56.3978638 78,52.9732977 C78,50.9946595 77.696,49.1682243 77.164,47.4178905 Z M28.3006993,28.1578947 L28.2255245,28.0877193 L28.2255245,27.9473684 C28.2255245,27.9473684 28.1503497,27.8070175 28.1503497,27.7368421 C28,27.4561404 28,27.245614 28,27.0350877 C28,26.754386 28.0751748,26.5438596 28.1503497,26.2631579 C28.2255245,25.9824561 28.451049,25.7719298 28.6013986,25.5614035 C28.8269231,25.3508772 29.1276224,25.2105263 29.3531469,25.1403509 C29.6538462,25.0701754 29.9545455,25 30.2552448,25 L68.6695804,25 C68.9702797,25 69.4213287,25.1403509 69.5716783,25.1403509 C69.8723776,25.2807018 70.2482517,25.4912281 70.6241259,25.9122807 L70.8496503,26.4035088 C71,26.6140351 71,26.8947368 71,27.0350877 C71,27.3157895 70.9248252,27.5964912 70.7744755,27.8070175 C70.6993007,28.0175439 70.548951,28.2982456 70.3234266,28.4385965 C70.0979021,28.6491228 69.7972028,28.7894737 69.5716783,28.8596491 C69.3461538,28.9298246 69.0454545,29 68.7447552,29 L30.2552448,29 C29.9545455,29 29.5034965,28.8596491 29.3531469,28.8596491 C28.9020979,28.7192982 28.5262238,28.4385965 28.3006993,28.1578947 Z M53.9612403,39.3320463 C53.496124,38.4054054 52.875969,37.5559846 52.0232558,37.015444 C51.5581395,36.7065637 51.0930233,36.4749035 50.627907,36.3976834 C50.0852713,36.2432432 49.620155,36.1660232 49,36.1660232 C48.2248062,36.1660232 47.5271318,36.3204633 46.9069767,36.6293436 C45.8992248,37.0926641 45.124031,37.7104247 44.5813953,38.6370656 C44.2713178,39.023166 44.1162791,39.5637066 43.9612403,40.1042471 C43.8062016,40.5675676 43.7286822,40.953668 43.7286822,41.4169884 L43.7286822,41.8030888 L43.6511628,41.8030888 L43.6511628,46.7451737 C43.6511628,46.976834 43.6511628,47.4401544 43.4186047,47.7490347 C43.2635659,47.980695 43.0310078,48.3667954 42.6434109,48.6756757 L42.1007752,48.984556 C41.8682171,49.1389961 41.5581395,49.1389961 41.4031008,49.1389961 C41.0930233,49.1389961 40.7054264,49.0617761 40.4728682,48.984556 C40.0077519,48.7528958 39.6976744,48.4440154 39.3875969,48.1351351 C39.3100775,48.0579151 39.3100775,47.980695 39.3100775,47.980695 C39.2325581,47.9034749 39.1550388,47.7490347 39.0775194,47.5173745 C39,47.2857143 39,47.0540541 39,46.8996139 L39,33 L59,33 L59,50.6061776 C59,50.8378378 59,51.3011583 58.7674419,51.6100386 C58.6124031,51.8416988 58.379845,52.2277992 57.9922481,52.5366795 L57.4496124,52.8455598 C57.2170543,53 56.9069767,53 56.751938,53 C56.4418605,53 56.0542636,52.9227799 55.8217054,52.8455598 C55.3565891,52.6138996 55.0465116,52.3050193 54.7364341,51.996139 C54.6589147,51.9189189 54.6589147,51.8416988 54.6589147,51.8416988 C54.5813953,51.7644788 54.503876,51.6100386 54.4263566,51.3783784 C54.3488372,51.0694981 54.3488372,50.8378378 54.3488372,50.6833977 L54.3488372,41.4169884 C54.4263566,40.7220077 54.2713178,39.9498069 53.9612403,39.3320463 Z M72.7272373,63.1225919 C70.9847859,67.1138354 68.2574706,71.4063047 64.696809,75.849387 L64.5452915,76 L34.4690648,76 L34.3175473,75.849387 C30.5296094,71.1050788 27.8780529,66.8126095 26.287119,63.1225919 C24.7719439,59.7338004 24.0143563,56.4203152 24.0143563,53.1821366 C23.9385976,51.9019264 24.1658738,50.3957968 24.6204264,48.6637478 C25.1507377,46.8563923 26.0598428,45.1243433 27.1962241,43.6182137 C28.2568467,42.3380035 29.1659518,41.4343257 29.9235394,40.9071804 C30.3780919,40.6059545 30.681127,40.1541156 30.984162,39.5516637 C31.287197,38.9492119 31.4387145,38.4220665 31.4387145,37.8196147 L31.4387145,33.150613 L35.98424,33.150613 L35.98424,46.5551664 C35.98424,47.3082312 36.1357575,47.9859895 36.4387925,48.5884413 C36.8933451,49.5674256 37.4994151,50.3204904 38.4085202,50.8476357 C38.8630728,51.1488616 39.3176253,51.3747811 39.7721778,51.4500876 C40.3024891,51.6007005 40.7570417,51.676007 41.3631117,51.676007 C42.1206993,51.676007 42.8025281,51.525394 43.4085982,51.2241681 C44.393462,50.7723292 45.1510496,50.1698774 45.6813609,49.2661996 C45.9843959,48.8143608 46.2116722,48.3625219 46.287431,47.910683 C46.4389485,47.3835377 46.5147072,46.9316988 46.5147072,46.3292469 L46.5147072,41.5849387 C46.5147072,41.2837128 46.6662248,40.8318739 46.6662248,40.6812609 C46.893501,40.2294221 47.1965361,39.9281961 47.4995711,39.6269702 L48.0298824,39.3257443 C48.2571587,39.1751313 48.5601937,39.1751313 48.7117112,39.1751313 C49.0147462,39.1751313 49.4692988,39.3257443 49.6208163,39.3257443 C49.9238513,39.4763573 50.3026451,39.7022767 50.6814389,40.1541156 L50.9844739,40.6812609 C51.1359914,40.9071804 51.1359914,41.2084063 51.1359914,41.3590193 L51.1359914,50.0945709 C51.1359914,50.8476357 51.287509,51.525394 51.590544,52.1278459 C52.0450965,53.1068301 52.6511666,53.8598949 53.5602717,54.3870403 C54.0148242,54.6882662 54.4693768,54.9141856 54.9239293,54.9894921 C55.4542406,55.1401051 55.9087932,55.2154116 56.5148632,55.2154116 C57.2724508,55.2154116 57.9542796,55.0647986 58.5603497,54.7635727 C59.5452135,54.3117338 60.3028011,53.709282 60.8331124,52.8056042 C61.1361474,52.3537653 61.3634237,51.9019264 61.4391824,51.4500876 C61.5907,50.9229422 61.6664587,50.4711033 61.6664587,49.8686515 L61.6664587,33 L67.4241243,33 L67.4241243,37.6690018 C67.4241243,38.3467601 67.5756418,38.9492119 67.8029181,39.4010508 C68.1059531,40.0035026 68.4847469,40.4553415 69.0150582,40.8318739 C69.4696107,41.1330998 70.0756808,41.7355517 70.7575096,42.41331 C71.9696497,43.7688266 72.9545136,45.1996497 73.6363424,46.6304729 C74.0908949,47.6847636 74.4696887,48.6637478 74.6212062,49.5674256 C74.8484825,50.7723292 75,51.9772329 75,53.2574431 C74.9242412,56.2697023 74.1666537,59.5831874 72.7272373,63.1225919 Z" id="pot" fill="#FFFFFF"></path>
        </g>
    </g>
</svg>